<svg width="295" height="98" viewBox="0 0 295 98" fill="none" xmlns="http://www.w3.org/2000/svg">
<rect y="0.778564" width="96.5844" height="96.5844" rx="16" fill="#40BFFF"/>
<path fill-rule="evenodd" clip-rule="evenodd" d="M68.1838 45.2765C70.2792 47.372 70.2792 50.7694 68.1838 52.8649L52.0864 68.9623C49.9909 71.0578 46.5935 71.0578 44.498 68.9623L28.4006 52.8649C26.3051 50.7694 26.3051 47.372 28.4006 45.2765L44.498 29.1791C46.5935 27.0837 49.9909 27.0837 52.0864 29.1791L68.1838 45.2765ZM48.2922 40.5617L39.7832 49.0707L48.2922 57.5797L56.8012 49.0707L48.2922 40.5617Z" fill="white"/>
<path d="M128.159 36.9698H112.679V62.2418H128.159V57.3098H118.835V51.7658H127.079V47.0138H118.835V41.9018H128.159V36.9698ZM131.796 52.1618H147.636V47.0498H131.796V52.1618ZM151.995 49.5698C151.995 57.1298 157.251 62.4218 164.703 62.4218C170.715 62.4218 175.251 59.0738 176.691 53.6018H169.923C168.879 55.7618 166.971 56.8418 164.631 56.8418C160.851 56.8418 158.259 54.0338 158.259 49.5698C158.259 45.1058 160.851 42.2978 164.631 42.2978C166.971 42.2978 168.879 43.3778 169.923 45.5378H176.691C175.251 40.0658 170.715 36.6818 164.703 36.6818C157.251 36.6818 151.995 42.0098 151.995 49.5698ZM200.117 52.1978C200.117 45.8258 195.581 41.8658 189.677 41.8658C183.809 41.8658 179.237 45.8258 179.237 52.1978C179.237 58.5698 183.701 62.5298 189.605 62.5298C195.509 62.5298 200.117 58.5698 200.117 52.1978ZM185.501 52.1978C185.501 48.7778 187.445 47.1938 189.677 47.1938C191.837 47.1938 193.853 48.7778 193.853 52.1978C193.853 55.5818 191.801 57.2018 189.605 57.2018C187.373 57.2018 185.501 55.5818 185.501 52.1978ZM231.066 62.2418H237.186V50.5058C237.186 45.1058 233.982 41.9378 229.014 41.9378C226.098 41.9378 223.578 43.5578 222.246 45.6818C220.878 43.2698 218.43 41.9378 215.406 41.9378C212.778 41.9378 210.726 43.0538 209.538 44.6738V42.1538H203.382V62.2418H209.538V51.3338C209.538 48.7058 211.05 47.2658 213.39 47.2658C215.73 47.2658 217.242 48.7058 217.242 51.3338V62.2418H223.362V51.3338C223.362 48.7058 224.874 47.2658 227.214 47.2658C229.554 47.2658 231.066 48.7058 231.066 51.3338V62.2418ZM269.176 62.2418H275.296V50.5058C275.296 45.1058 272.092 41.9378 267.124 41.9378C264.208 41.9378 261.688 43.5578 260.356 45.6818C258.988 43.2698 256.54 41.9378 253.516 41.9378C250.888 41.9378 248.836 43.0538 247.648 44.6738V42.1538H241.492V62.2418H247.648V51.3338C247.648 48.7058 249.16 47.2658 251.5 47.2658C253.84 47.2658 255.352 48.7058 255.352 51.3338V62.2418H261.472V51.3338C261.472 48.7058 262.984 47.2658 265.324 47.2658C267.664 47.2658 269.176 48.7058 269.176 51.3338V62.2418Z" fill="#22262A"/>
</svg>
